<svg aria-hidden="true" style="position: absolute; width: 0; height: 0; overflow: hidden;" version="1.1" xmlns="http://www.w3.org/2000/svg" xmlns:xlink="http://www.w3.org/1999/xlink">
<defs>
<symbol id="icon_arrow_d-1" viewBox="0 0 58 32">
<title>icon_arrow_d-1</title>
<path d="M29.217 32l-29.217-32h58.435l-29.217 32z"></path>
</symbol>
<symbol id="icon_user-1" viewBox="0 0 25 32">
<title>icon_user-1</title>
<path d="M12.522 17.855c-4.865-0.002-8.809-3.946-8.809-8.812 0-4.867 3.945-8.812 8.812-8.812 4.785 0 8.679 3.814 8.808 8.568l0 0.012c0.002 0.069 0.003 0.15 0.003 0.232 0 4.867-3.945 8.812-8.812 8.812-0.001 0-0.002 0-0.003 0h0zM12.522 2.319c-3.586 0-6.493 2.907-6.493 6.493s2.907 6.493 6.493 6.493c3.586 0 6.493-2.907 6.493-6.493v0c0-3.586-2.907-6.493-6.493-6.493v0z"></path>
<path d="M25.043 32h-2.319c0-5.635-4.568-10.203-10.203-10.203s-10.203 4.568-10.203 10.203v0h-2.319c0-6.916 5.606-12.522 12.522-12.522s12.522 5.606 12.522 12.522v0z"></path>
</symbol>
</defs>
</svg>
